<svg fill="none" xmlns="http://www.w3.org/2000/svg" viewBox="0 0 163 34">
  <path d="M8.82 25.77s4.08 6.04 11.66 6.04c3.92 0 8.33-1.61 8.33-4.6 0-3.22-2.83-4.83-8.74-5.96-8.25-1.61-14.08-4.76-14.08-11.77 0-3.82 2.79-7.6 7.45-9.48C5.6 2.66 0 9.87 0 18.35c0 4.4 1.5 8.46 4.05 11.71l4.77-4.3Z" fill="#5655D1"/>
  <path d="M34.24 4.55 29.81 9s-3.83-4.1-9.66-4.1c-4.91 0-7.33 2.33-7.33 4.75 0 2.82 3 4.35 9.33 5.64 7.33 1.54 13.58 4.2 13.58 11.78 0 2.1-.67 3.9-1.8 5.4a19.1 19.1 0 0 0 6.25-14.1c0-5.4-2.27-10.29-5.94-13.8Z" fill="#34E0A1"/>
  <path d="M61.79 24.25c2.86 0 4.44-1.27 4.44-2.58 0-1.86-2.57-2.34-5.36-2.82-3.03-.47-9.54-1.56-9.54-7.15 0-5.56 5.3-7.06 9.54-7.06 4.2 0 6.87 1.24 9.5 3.13l-2.9 3.83c-2.06-1.44-4.46-2.4-6.8-2.4-1.51 0-4.14.45-4.14 2.3 0 1.67 2.6 2.05 4.77 2.5 3.9.8 10.13 1.28 10.13 7.54 0 4.86-3.89 7.25-9.58 7.25-5.2 0-8.61-1.79-10.85-3.64l2.76-3.87c1.75 1.4 5.27 2.97 8.03 2.97Zm17.9-11.72c.75-1 2.92-2.14 5.49-2.14 5.72 0 9.08 4.12 9.08 9.17s-3.36 9.17-9.08 9.17c-2.63 0-4.57-1.02-5.5-2.2V34h-4.86V10.77h4.87v1.76Zm4.76 12.01c3.13 0 4.97-2.1 4.97-4.98a4.76 4.76 0 0 0-4.97-4.95c-3.05 0-4.96 1.88-4.96 4.95 0 2.9 1.9 4.98 4.96 4.98Zm13.56-3.32V10.84h4.97v10.38c0 2.68 1.64 3.51 3.52 3.51 1.38 0 3.58-.8 3.45-4.6v-9.3h4.93v17.51h-4.93v-1.5a6.83 6.83 0 0 1-4.84 1.89c-5.2 0-7.1-2.97-7.1-7.51Zm26.82-.64v7.76h-4.9V10.77h4.9v2.33c1.84-2.36 4.9-2.68 6.19-2.65v4.67c-1.19-.1-6.19.12-6.19 5.46Zm9.75 7.76V5h5.2v23.35h-5.2ZM155.3 9.37v18.97h-5.23V9.37h-7V4.99h19.2v4.38h-6.97Z" fill="#151515"/>
</svg>
